<svg id="Your_Icons" data-name="Your Icons" xmlns="http://www.w3.org/2000/svg" viewBox="0 0 33 31"><defs><style>.cls-1{fill:#945aaf;}</style></defs><path class="cls-1" d="M30,7H29A8,8,0,0,0,13.14,7h-3L8.87,3.36A5,5,0,0,0,4.16,0H1A1,1,0,0,0,1,2H4.16A3,3,0,0,1,7,4L8,7H8l2.5,7.09,2.62,7.55A5,5,0,0,0,17.85,25H23a1,1,0,0,0,0-2H17.85A3,3,0,0,1,15,21H25.77a6.06,6.06,0,0,0,5.94-4.74l1.22-5.63a3,3,0,0,0-2.3-3.56A2.7,2.7,0,0,0,30,7ZM17.27,3.3A5.94,5.94,0,0,1,21,2a6,6,0,0,1,5.91,5A5.55,5.55,0,0,1,27,8a6,6,0,0,1-6,6h-.7l-.49-.08h0a6.07,6.07,0,0,1-3-1.58l-.2-.22a2.09,2.09,0,0,1-.2-.22,1.09,1.09,0,0,1-.13-.17l-.23-.3a2.26,2.26,0,0,1-.16-.26c-.05-.08-.1-.16-.14-.24a3.59,3.59,0,0,1-.17-.34l-.09-.19c0-.12-.1-.25-.14-.38a.87.87,0,0,0-.07-.17s-.07-.27-.1-.41,0-.12,0-.18,0-.28-.06-.43V8.66a6.11,6.11,0,0,1,0-1.48A6,6,0,0,1,17.27,3.3ZM31,10.21l-1.22,5.63a4.08,4.08,0,0,1-4,3.16H14.35l-2-5.61L10.84,9h2.22v.14a6.86,6.86,0,0,0,.22,1v.2c.12.34.25.67.4,1l.14.27a8.24,8.24,0,0,0,.57,1l.14.18a7.67,7.67,0,0,0,.79.92,7,7,0,0,0,.58.51c.12.1.25.18.37.27l.24.17c.18.13.38.24.57.35h.07c.21.11.43.21.65.3h0c.21.09.43.16.65.23h.08l.62.16h.14l.6.09h1a5.08,5.08,0,0,0,.78,0H22l.45-.07.37-.09.36-.09.4-.14.3-.11a3,3,0,0,0,.41-.18l.26-.12.41-.23.21-.13.42-.28.17-.13a4.12,4.12,0,0,0,.4-.33l.15-.13c.13-.12.26-.24.38-.37l.12-.13c.12-.14.25-.28.36-.42l.09-.12c.12-.15.23-.31.34-.47a.22.22,0,0,1,.05-.08,8.08,8.08,0,0,0,.82-1.7l.06-.18a1.56,1.56,0,0,1,.1-.37,1.56,1.56,0,0,1,.1-.37l.06-.34.06-.34h1A1.16,1.16,0,0,1,31,9.93.88.88,0,0,1,31,10.21Z"/><path class="cls-1" d="M16,28a3,3,0,1,0-3,3A3,3,0,0,0,16,28Zm-4,0a1,1,0,1,1,1,1A1,1,0,0,1,12,28Z"/><path class="cls-1" d="M30,28a3,3,0,1,0-3,3A3,3,0,0,0,30,28Zm-4,0a1,1,0,1,1,1,1A1,1,0,0,1,26,28Z"/><path class="cls-1" d="M18.5,9H20v1.5a1,1,0,0,0,2,0V9h1.5a1,1,0,0,0,0-2H22V5.5a1,1,0,0,0-2,0V7H18.5a1,1,0,0,0,0,2Z"/></svg>