<?xml version="1.0" encoding="utf-8"?>
<!-- Generator: Adobe Illustrator 16.0.0, SVG Export Plug-In . SVG Version: 6.00 Build 0)  -->
<!DOCTYPE svg PUBLIC "-//W3C//DTD SVG 1.1//EN" "http://www.w3.org/Graphics/SVG/1.1/DTD/svg11.dtd">
<svg version="1.1" id="Livello_1" xmlns="http://www.w3.org/2000/svg" xmlns:xlink="http://www.w3.org/1999/xlink" x="0px" y="0px"
	 width="64px" height="64px" viewBox="0 0 64 64" enable-background="new 0 0 64 64" xml:space="preserve">
<g>
	<path fill="#945AAF" d="M62,32c0,16.565-13.435,30-30,30C15.432,62,2,48.565,2,32C2,15.432,15.432,2,32,2C48.565,2,62,15.432,62,32
		z"/>
	
	<path id="CERCHIO_2_" fill="#1C1C1C" d="M32,17.212c8.154,0,14.79,6.633,14.79,14.788c0,8.153-6.636,14.787-14.79,14.787
		c-8.155,0-14.79-6.634-14.79-14.787C17.21,23.845,23.845,17.212,32,17.212 M32,12.712C21.347,12.712,12.71,21.348,12.71,32
		c0,10.651,8.637,19.287,19.289,19.287c10.652,0,19.289-8.636,19.289-19.287C51.288,21.348,42.651,12.712,32,12.712L32,12.712z"/>
</g>
</svg>
