<?xml version="1.0" encoding="utf-8"?>
<!-- Generator: Adobe Illustrator 16.0.0, SVG Export Plug-In . SVG Version: 6.00 Build 0)  -->
<!DOCTYPE svg PUBLIC "-//W3C//DTD SVG 1.1//EN" "http://www.w3.org/Graphics/SVG/1.1/DTD/svg11.dtd">
<svg version="1.1" id="Livello_1" xmlns="http://www.w3.org/2000/svg" xmlns:xlink="http://www.w3.org/1999/xlink" x="0px" y="0px"
	 width="64px" height="64px" viewBox="0 0 64 64" enable-background="new 0 0 64 64" xml:space="preserve">
<g>
	<path fill="#31B2A0" d="M62,32c0,16.565-13.433,30-30,30S2,48.565,2,32C2,15.433,15.433,2,32,2S62,15.433,62,32z"/>
	 
	<path fill="#1C1C1C" d="M35.182,32l13.947-13.948c0.879-0.879,0.879-2.303,0-3.182s-2.302-0.879-3.181,0L32,28.818L18.051,14.87
		c-0.879-0.879-2.303-0.879-3.182,0s-0.879,2.303,0,3.182L28.818,32L14.87,45.948c-0.879,0.879-0.879,2.302,0,3.181
		c0.439,0.439,1.017,0.659,1.591,0.659c0.577,0,1.151-0.22,1.59-0.659L32,35.182l13.948,13.947c0.439,0.439,1.016,0.659,1.59,0.659
		c0.578,0,1.151-0.22,1.591-0.659c0.879-0.879,0.879-2.302,0-3.181L35.182,32z"/>
</g>
</svg>
