<svg xmlns="http://www.w3.org/2000/svg" width="375" viewBox="0 0 375 375" height="375" version="1.0"><defs><clipPath id="a"><path d="M 54.824219 52.683594 L 326.324219 52.683594 L 326.324219 324.183594 L 54.824219 324.183594 Z M 54.824219 52.683594"/></clipPath><clipPath id="b"><path d="M 26.183594 30.253906 L 348.683594 30.253906 L 348.683594 352.753906 L 26.183594 352.753906 Z M 26.183594 30.253906"/></clipPath><clipPath id="c"><path d="M 133.207031 144.222656 L 241.957031 144.222656 L 241.957031 257.472656 L 133.207031 257.472656 Z M 133.207031 144.222656"/></clipPath></defs><g clip-path="url(#a)"><path fill="#191919" d="M 326.324219 188.433594 C 326.324219 190.65625 326.269531 192.875 326.160156 195.09375 C 326.050781 197.3125 325.886719 199.527344 325.671875 201.738281 C 325.453125 203.949219 325.179688 206.152344 324.855469 208.351562 C 324.527344 210.550781 324.148438 212.738281 323.714844 214.917969 C 323.28125 217.09375 322.796875 219.261719 322.257812 221.417969 C 321.714844 223.574219 321.125 225.714844 320.480469 227.839844 C 319.835938 229.964844 319.136719 232.074219 318.390625 234.164062 C 317.640625 236.257812 316.839844 238.328125 315.992188 240.382812 C 315.140625 242.433594 314.242188 244.464844 313.292969 246.472656 C 312.339844 248.480469 311.34375 250.464844 310.296875 252.425781 C 309.246094 254.382812 308.152344 256.316406 307.011719 258.222656 C 305.867188 260.128906 304.679688 262.003906 303.445312 263.851562 C 302.210938 265.699219 300.933594 267.515625 299.609375 269.300781 C 298.285156 271.082031 296.921875 272.835938 295.511719 274.550781 C 294.101562 276.269531 292.652344 277.949219 291.160156 279.597656 C 289.667969 281.242188 288.136719 282.851562 286.5625 284.421875 C 284.992188 285.992188 283.386719 287.523438 281.738281 289.015625 C 280.09375 290.507812 278.410156 291.960938 276.695312 293.367188 C 274.976562 294.777344 273.226562 296.144531 271.441406 297.46875 C 269.65625 298.792969 267.839844 300.070312 265.992188 301.304688 C 264.144531 302.539062 262.269531 303.726562 260.363281 304.871094 C 258.457031 306.011719 256.527344 307.105469 254.566406 308.152344 C 252.605469 309.199219 250.625 310.199219 248.613281 311.148438 C 246.605469 312.097656 244.578125 313 242.523438 313.847656 C 240.472656 314.699219 238.398438 315.5 236.308594 316.246094 C 234.214844 316.996094 232.105469 317.691406 229.980469 318.335938 C 227.855469 318.984375 225.714844 319.574219 223.558594 320.113281 C 221.402344 320.65625 219.238281 321.140625 217.058594 321.574219 C 214.878906 322.007812 212.691406 322.386719 210.492188 322.714844 C 208.296875 323.039062 206.089844 323.3125 203.878906 323.527344 C 201.667969 323.746094 199.453125 323.910156 197.234375 324.019531 C 195.015625 324.128906 192.796875 324.183594 190.574219 324.183594 C 188.351562 324.183594 186.132812 324.128906 183.914062 324.019531 C 181.695312 323.910156 179.480469 323.746094 177.269531 323.527344 C 175.058594 323.3125 172.851562 323.039062 170.65625 322.714844 C 168.457031 322.386719 166.269531 322.007812 164.089844 321.574219 C 161.910156 321.140625 159.746094 320.65625 157.589844 320.113281 C 155.433594 319.574219 153.292969 318.984375 151.167969 318.335938 C 149.042969 317.691406 146.933594 316.996094 144.839844 316.246094 C 142.75 315.5 140.679688 314.699219 138.625 313.847656 C 136.574219 313 134.542969 312.097656 132.535156 311.148438 C 130.527344 310.199219 128.542969 309.199219 126.582031 308.152344 C 124.625 307.105469 122.691406 306.011719 120.785156 304.871094 C 118.878906 303.726562 117.003906 302.539062 115.15625 301.304688 C 113.308594 300.070312 111.492188 298.792969 109.707031 297.46875 C 107.925781 296.144531 106.171875 294.777344 104.457031 293.367188 C 102.738281 291.960938 101.054688 290.507812 99.410156 289.015625 C 97.765625 287.523438 96.15625 285.992188 94.585938 284.421875 C 93.015625 282.851562 91.480469 281.242188 89.992188 279.597656 C 88.5 277.949219 87.046875 276.269531 85.636719 274.550781 C 84.230469 272.835938 82.863281 271.082031 81.539062 269.300781 C 80.214844 267.515625 78.9375 265.699219 77.703125 263.851562 C 76.46875 262.003906 75.28125 260.128906 74.136719 258.222656 C 72.996094 256.316406 71.902344 254.382812 70.855469 252.425781 C 69.804688 250.464844 68.808594 248.480469 67.859375 246.472656 C 66.90625 244.464844 66.007812 242.433594 65.15625 240.382812 C 64.308594 238.328125 63.507812 236.257812 62.761719 234.164062 C 62.011719 232.074219 61.316406 229.964844 60.667969 227.839844 C 60.023438 225.714844 59.433594 223.574219 58.894531 221.417969 C 58.351562 219.261719 57.867188 217.09375 57.433594 214.917969 C 57 212.738281 56.621094 210.550781 56.292969 208.351562 C 55.96875 206.152344 55.695312 203.949219 55.476562 201.738281 C 55.261719 199.527344 55.097656 197.3125 54.988281 195.09375 C 54.878906 192.875 54.824219 190.65625 54.824219 188.433594 C 54.824219 186.210938 54.878906 183.992188 54.988281 181.773438 C 55.097656 179.554688 55.261719 177.339844 55.476562 175.128906 C 55.695312 172.917969 55.96875 170.710938 56.292969 168.515625 C 56.621094 166.316406 57 164.128906 57.433594 161.949219 C 57.867188 159.769531 58.351562 157.601562 58.894531 155.449219 C 59.433594 153.292969 60.023438 151.152344 60.667969 149.027344 C 61.316406 146.902344 62.011719 144.792969 62.761719 142.699219 C 63.507812 140.609375 64.308594 138.535156 65.15625 136.484375 C 66.007812 134.429688 66.90625 132.402344 67.859375 130.390625 C 68.808594 128.382812 69.804688 126.398438 70.855469 124.441406 C 71.902344 122.480469 72.996094 120.550781 74.136719 118.644531 C 75.28125 116.738281 76.46875 114.863281 77.703125 113.015625 C 78.9375 111.167969 80.214844 109.351562 81.539062 107.566406 C 82.863281 105.78125 84.230469 104.03125 85.636719 102.3125 C 87.046875 100.597656 88.5 98.914062 89.992188 97.269531 C 91.480469 95.621094 93.015625 94.015625 94.585938 92.441406 C 96.15625 90.871094 97.765625 89.339844 99.410156 87.847656 C 101.054688 86.355469 102.738281 84.90625 104.457031 83.496094 C 106.171875 82.085938 107.925781 80.722656 109.707031 79.398438 C 111.492188 78.074219 113.308594 76.796875 115.15625 75.5625 C 117.003906 74.328125 118.878906 73.136719 120.785156 71.996094 C 122.691406 70.855469 124.625 69.757812 126.582031 68.710938 C 128.542969 67.664062 130.527344 66.667969 132.535156 65.714844 C 134.542969 64.765625 136.574219 63.867188 138.625 63.015625 C 140.679688 62.167969 142.75 61.367188 144.839844 60.617188 C 146.933594 59.871094 149.042969 59.171875 151.167969 58.527344 C 153.292969 57.882812 155.433594 57.292969 157.589844 56.75 C 159.746094 56.210938 161.910156 55.726562 164.089844 55.292969 C 166.269531 54.859375 168.457031 54.476562 170.65625 54.152344 C 172.851562 53.828125 175.058594 53.554688 177.269531 53.335938 C 179.480469 53.117188 181.695312 52.957031 183.914062 52.847656 C 186.132812 52.738281 188.351562 52.683594 190.574219 52.683594 C 192.796875 52.683594 195.015625 52.738281 197.234375 52.847656 C 199.453125 52.957031 201.667969 53.117188 203.878906 53.335938 C 206.089844 53.554688 208.296875 53.828125 210.492188 54.152344 C 212.691406 54.476562 214.878906 54.859375 217.058594 55.292969 C 219.238281 55.726562 221.402344 56.210938 223.558594 56.75 C 225.714844 57.292969 227.855469 57.882812 229.980469 58.527344 C 232.105469 59.171875 234.214844 59.871094 236.308594 60.617188 C 238.398438 61.367188 240.472656 62.167969 242.523438 63.015625 C 244.578125 63.867188 246.605469 64.765625 248.613281 65.714844 C 250.625 66.667969 252.605469 67.664062 254.566406 68.710938 C 256.527344 69.757812 258.457031 70.855469 260.363281 71.996094 C 262.269531 73.136719 264.144531 74.328125 265.992188 75.5625 C 267.839844 76.796875 269.65625 78.074219 271.441406 79.398438 C 273.226562 80.722656 274.976562 82.085938 276.695312 83.496094 C 278.410156 84.90625 280.09375 86.355469 281.738281 87.847656 C 283.386719 89.339844 284.992188 90.871094 286.5625 92.441406 C 288.136719 94.015625 289.667969 95.621094 291.160156 97.269531 C 292.652344 98.914062 294.101562 100.597656 295.511719 102.3125 C 296.921875 104.03125 298.285156 105.78125 299.609375 107.566406 C 300.933594 109.351562 302.210938 111.167969 303.445312 113.015625 C 304.679688 114.863281 305.867188 116.738281 307.011719 118.644531 C 308.152344 120.550781 309.246094 122.480469 310.296875 124.441406 C 311.34375 126.398438 312.339844 128.382812 313.292969 130.390625 C 314.242188 132.402344 315.140625 134.429688 315.992188 136.484375 C 316.839844 138.535156 317.640625 140.609375 318.390625 142.699219 C 319.136719 144.792969 319.835938 146.902344 320.480469 149.027344 C 321.125 151.152344 321.714844 153.292969 322.257812 155.449219 C 322.796875 157.601562 323.28125 159.769531 323.714844 161.949219 C 324.148438 164.128906 324.527344 166.316406 324.855469 168.515625 C 325.179688 170.710938 325.453125 172.917969 325.671875 175.128906 C 325.886719 177.339844 326.050781 179.554688 326.160156 181.773438 C 326.269531 183.992188 326.324219 186.210938 326.324219 188.433594 Z M 326.324219 188.433594"/></g><g clip-path="url(#b)"><path fill="#EB4B3F" d="M 187.433594 30.253906 C 98.34375 30.253906 26.183594 102.410156 26.183594 191.503906 C 26.183594 280.59375 98.34375 352.753906 187.433594 352.753906 C 276.523438 352.753906 348.683594 280.59375 348.683594 191.503906 C 348.683594 102.410156 276.523438 30.253906 187.433594 30.253906 Z M 187.433594 320.503906 C 116.160156 320.503906 58.433594 262.773438 58.433594 191.503906 C 58.433594 120.230469 116.160156 62.503906 187.433594 62.503906 C 258.707031 62.503906 316.433594 120.230469 316.433594 191.503906 C 316.433594 262.773438 258.707031 320.503906 187.433594 320.503906 Z M 187.433594 320.503906"/></g><g fill="#EB4B3F"><g><g><path d="M 129.75 0 L 7.8125 0 L 68.78125 -132.171875 Z M 18.59375 -6.875 L 118.96875 -6.875 L 68.78125 -115.8125 Z M 18.59375 -6.875" transform="translate(118.705 261.375)"/></g></g></g><g clip-path="url(#c)"><path fill="#EB4B3F" d="M 241.105469 253.527344 L 189.652344 145.972656 C 188.875 144.339844 186.195312 144.339844 185.414062 145.972656 L 133.710938 254.054688 C 133.359375 254.78125 133.414062 255.636719 133.839844 256.320312 C 134.269531 257 135.019531 257.417969 135.828125 257.417969 L 239.332031 257.417969 C 240.628906 257.417969 241.683594 256.367188 241.683594 255.070312 C 241.683594 254.480469 241.464844 253.941406 241.105469 253.527344 Z M 241.105469 253.527344"/></g></svg>