<svg id="Capa_1" data-name="Capa 1" xmlns="http://www.w3.org/2000/svg" viewBox="0 0 731.55 714.52"><defs><style>.cls-1{fill:#f9c438;}.cls-2{fill:#eb4b3f;}.cls-3{fill:#945aaf;}.cls-4{fill:#31b2a0;}</style></defs><path class="cls-1" d="M151,258.21a126.54,126.54,0,0,0,0,253.08c69.43,0,126.53-56.46,126.53-126.54S220.42,258.21,151,258.21Zm0,233.61A107.07,107.07,0,1,1,258.06,384.75,107.18,107.18,0,0,1,151,491.82Z" transform="translate(-24.45 -29.29)"/><path class="cls-1" d="M212.24,451.48H108.58V316.62h52.51q16.85,0,27.51,6a41.72,41.72,0,0,1,16.27,15.89,43.74,43.74,0,0,1,5.82,22.28,42.76,42.76,0,0,1-9.3,27A43.75,43.75,0,0,1,178,403.62Zm-96.5-123V398h49.8Zm0,115.87h82.93L170.39,405l-6,.19H115.74Zm5-120.52,52.7,73.63a37,37,0,0,0,21.52-13,35.93,35.93,0,0,0,8.52-23.64,37,37,0,0,0-5.23-19.38,34.48,34.48,0,0,0-14.73-13.37q-8.52-4.24-22.28-4.26Z" transform="translate(-24.45 -29.29)"/><path class="cls-2" d="M384.26,29.29a126.54,126.54,0,0,0,0,253.07c69.44,0,126.54-56.45,126.54-126.54S453.7,29.29,384.26,29.29Zm0,233.6A107.07,107.07,0,1,1,491.33,155.82,107.18,107.18,0,0,1,384.26,262.89Z" transform="translate(-24.45 -29.29)"/><path class="cls-2" d="M447.81,208.91H320.69L384.26,71.14Zm-115.87-7.17H436.57L384.26,88.19Z" transform="translate(-24.45 -29.29)"/><path class="cls-3" d="M388.73,490.73a126.54,126.54,0,0,0,0,253.08c69.43,0,126.54-56.46,126.54-126.54S458.16,490.73,388.73,490.73Zm0,233.61A107.07,107.07,0,1,1,495.8,617.27,107.18,107.18,0,0,1,388.73,724.34Z" transform="translate(-24.45 -29.29)"/><path class="cls-3" d="M390.67,605.33,446.86,684H338.35V549.14H446.86Zm-5,5-40.11,40.11v26.35H433.1Z" transform="translate(-24.45 -29.29)"/><path class="cls-4" d="M629.46,258.21a126.54,126.54,0,0,0,0,253.08C698.9,511.29,756,454.83,756,384.75S698.9,258.21,629.46,258.21Zm0,233.61A107.07,107.07,0,1,1,736.53,384.75,107.18,107.18,0,0,1,629.46,491.82Z" transform="translate(-24.45 -29.29)"/><path class="cls-4" d="M604.37,328a48.69,48.69,0,0,0-17.73,17.64A46.83,46.83,0,0,0,580.05,370v25.58q0,13.75,3.87,22.67a48.35,48.35,0,0,0,16.48,20.54,47.22,47.22,0,0,0,24.79,8.91v-63h59.1v12.78a62,62,0,0,1-3.68,22.1,53,53,0,0,1-20.15,25.77,55.25,55.25,0,0,1-32,9.69,54.32,54.32,0,0,1-30.72-9.21,53.58,53.58,0,0,1-20.24-24.51q-4.65-10.85-4.66-25.77V370a54.33,54.33,0,0,1,7.47-27.9,55.34,55.34,0,0,1,20.24-20.24,54.4,54.4,0,0,1,27.91-7.47,61.71,61.71,0,0,1,23,4.17,48.32,48.32,0,0,1,17.83,12.11,58.18,58.18,0,0,1,9.79,14.73,38.7,38.7,0,0,1,3.77,16.47h-7a34.11,34.11,0,0,0-3.59-14.15,51,51,0,0,0-8.62-12.6q-13-13.54-35.26-13.56A47.12,47.12,0,0,0,604.37,328Zm72.75,63.65h-45v56a48.54,48.54,0,0,0,25.09-8.81A45.87,45.87,0,0,0,673.64,418a57.12,57.12,0,0,0,3.48-20.54Z" transform="translate(-24.45 -29.29)"/></svg>