<svg id="Capa_1" data-name="Capa 1" xmlns="http://www.w3.org/2000/svg" viewBox="0 0 1252.22 133.92"><defs><style>.cls-1{fill:#fff;}</style></defs><path class="cls-1" d="M108,46.61h28.7l51.14,128.78H156.6L148,153.13H96.81l-8.65,22.26H56.89Zm32.56,83.52L122.38,83l-18,47.09Z" transform="translate(-56.89 -44.04)"/><path class="cls-1" d="M232.57,46.61h55a61.82,61.82,0,0,1,20,3,41.84,41.84,0,0,1,15.17,8.83,39.39,39.39,0,0,1,9.66,14A47.76,47.76,0,0,1,335.77,91q0,14.34-6.43,24.46a40.11,40.11,0,0,1-18,15.27L338,175.39H304.13l-23-40.11H261.82v40.11H232.57Zm51.14,64q10.86,0,16.65-5.06t5.8-14.44q0-9.37-5.8-14.44t-16.65-5.06H261.45v39Z" transform="translate(-56.89 -44.04)"/><path class="cls-1" d="M389.67,46.61h29.25V96.1h11a45.57,45.57,0,0,0,9.38-.83A18.9,18.9,0,0,0,446,92.6a16.19,16.19,0,0,0,4.69-4.87,38.87,38.87,0,0,0,3.58-7.64l12.15-33.48H498L480.18,92.42a78,78,0,0,1-5.52,11.31,41,41,0,0,1-6.8,8.56l34.77,63.1h-34L441,123.14a29.85,29.85,0,0,1-3.22.19H418.92v52.06H389.67Z" transform="translate(-56.89 -44.04)"/><path class="cls-1" d="M604.36,178a72,72,0,0,1-27.23-5,64.7,64.7,0,0,1-21.34-13.79,61.27,61.27,0,0,1-14-21.16,71.69,71.69,0,0,1-5-27,71.73,71.73,0,0,1,5-27,61.33,61.33,0,0,1,35-35,71.73,71.73,0,0,1,27-5,75.31,75.31,0,0,1,22.26,3.22,67.81,67.81,0,0,1,18.86,9,60.65,60.65,0,0,1,14.44,14.07,58.66,58.66,0,0,1,9,18.4H636.92a33.71,33.71,0,0,0-13.25-13.15,39.13,39.13,0,0,0-19.31-4.69,40.15,40.15,0,0,0-15.55,2.94,35,35,0,0,0-12.14,8.28,37.29,37.29,0,0,0-7.82,12.69A45.77,45.77,0,0,0,566.09,111a45.15,45.15,0,0,0,2.76,16,38,38,0,0,0,7.73,12.7,35,35,0,0,0,12.14,8.37,40.74,40.74,0,0,0,16,3q14.17,0,23.55-7.17a32.4,32.4,0,0,0,12.14-19H598.65V102.35h72.67a83.35,83.35,0,0,1-3.22,30.45A64.8,64.8,0,0,1,655,156.71a60.91,60.91,0,0,1-21.71,15.64A71.6,71.6,0,0,1,604.36,178Z" transform="translate(-56.89 -44.04)"/><path class="cls-1" d="M753.18,46.61h28.7L833,175.39H801.75l-8.65-22.26H742l-8.65,22.26H702Zm32.56,83.52L767.53,83l-18,47.09Z" transform="translate(-56.89 -44.04)"/><path class="cls-1" d="M877.72,46.61h24.84l45.8,66.78L994,46.61h24.65V175.39H989.57V97.94L958.3,143.56H938.06L906.79,97.75v77.64H877.72Z" transform="translate(-56.89 -44.04)"/><path class="cls-1" d="M1077.14,46.61h84.62V71.26H1106.2V97.94h50.59v24.47H1106.2v28.14h57.58v24.84h-86.64Z" transform="translate(-56.89 -44.04)"/><path class="cls-1" d="M1259.81,178a72.7,72.7,0,0,1-21.8-3,47.63,47.63,0,0,1-16.47-8.74,37.73,37.73,0,0,1-10.39-13.8,44,44,0,0,1-3.59-18h28.7q0,9.39,6.35,14.44t17,5.06q9.21,0,14.54-3.58a11.45,11.45,0,0,0,5.33-10q0-6.81-6.34-11T1253,122q-22.82-4.79-33.57-14.44t-10.76-25.48A37.06,37.06,0,0,1,1212,66.21a32.37,32.37,0,0,1,9.56-12,45.55,45.55,0,0,1,15.18-7.54,69.52,69.52,0,0,1,20-2.67,66.58,66.58,0,0,1,20.7,3,46.83,46.83,0,0,1,15.82,8.56,37.06,37.06,0,0,1,10,13.33,42.63,42.63,0,0,1,3.5,17.57h-28.15q0-8.82-5.7-13.7T1257.05,68q-9.39,0-14.63,3.59a11.48,11.48,0,0,0-5.24,10q0,5.88,5.89,9.93t20.6,7.54q24.11,5.7,34.77,15.18t10.67,24.93q0,18.39-13.15,28.6T1259.81,178Z" transform="translate(-56.89 -44.04)"/></svg>