<svg id="Capa_1" data-name="Capa 1" xmlns="http://www.w3.org/2000/svg" viewBox="0 0 3791.34 693.72"><defs><style>.cls-1{fill:#f9c438;}.cls-2{fill:#eb4b3f;}.cls-3{fill:#945aaf;}.cls-4{fill:#31b2a0;}.cls-5{isolation:isolate;}.cls-6{fill:#fff;}</style></defs><path class="cls-1" d="M122.86,222.28A122.86,122.86,0,1,0,120.65,468h2.21c67.41,0,122.85-54.81,122.85-122.85S190.27,222.28,122.86,222.28Zm0,226.81a104,104,0,1,1,104-104,104,104,0,0,1-104,104Z" transform="translate(1.11)"/><path class="cls-1" d="M182.34,409.9H81.68V279h51q16.35,0,26.71,5.83a40.64,40.64,0,0,1,15.79,15.48,42.62,42.62,0,0,1,5.64,21.63,41.51,41.51,0,0,1-9,26.24,42.44,42.44,0,0,1-22.76,15.34ZM88.64,290.45V358H137Zm0,112.49h80.52L141.7,364.76l-5.84.18H88.64Zm4.89-117,51.17,71.49a36,36,0,0,0,20.89-12.6,35,35,0,0,0,8.27-23A36,36,0,0,0,168.79,303a33.4,33.4,0,0,0-14.3-13q-8.28-4.12-21.64-4.14Z" transform="translate(1.11)"/><path class="cls-2" d="M349.34,0a122.86,122.86,0,0,0,0,245.71c67.42,0,122.86-54.81,122.86-122.86S416.76,0,349.34,0Zm0,226.81a104,104,0,1,1,104-104A104,104,0,0,1,349.34,226.81Z" transform="translate(1.11)"/><path class="cls-2" d="M411,174.39H287.63L349.34,40.63Zm-112.5-7H400.12L349.34,57.19Z" transform="translate(1.11)"/><path class="cls-3" d="M353.68,448a122.86,122.86,0,0,0,0,245.71c67.41,0,122.85-54.81,122.85-122.85S421.09,448,353.68,448Zm0,226.81a104,104,0,1,1,104-104v0a104.05,104.05,0,0,1-104,104Z" transform="translate(1.11)"/><path class="cls-3" d="M355.56,559.28l54.56,76.38H304.77V504.72H410.12Zm-4.89,4.89-38.94,39v25.58h85Z" transform="translate(1.11)"/><path class="cls-4" d="M587.4,222.28a122.86,122.86,0,0,0,0,245.71c67.42,0,122.86-54.81,122.86-122.85S654.82,222.28,587.4,222.28Zm0,226.81a104,104,0,1,1,104-104h0a104.05,104.05,0,0,1-104,104Z" transform="translate(1.11)"/><path class="cls-4" d="M563,290a47.5,47.5,0,0,0-17.22,17.12,45.59,45.59,0,0,0-6.39,23.61v24.83q0,13.37,3.76,22a47,47,0,0,0,16,19.94,46,46,0,0,0,24.08,8.66V345.06h57.37v12.41a60.05,60.05,0,0,1-3.58,21.45,51.42,51.42,0,0,1-19.56,25,53.64,53.64,0,0,1-31,9.41,52.75,52.75,0,0,1-29.82-8.94A52,52,0,0,1,537,380.59q-4.53-10.53-4.53-25V330.76a52.83,52.83,0,0,1,7.25-27.09A53.84,53.84,0,0,1,559.34,284a52.82,52.82,0,0,1,27.09-7.24,60,60,0,0,1,22.38,4,47,47,0,0,1,17.31,11.76,55.94,55.94,0,0,1,9.5,14.3,37.56,37.56,0,0,1,3.67,16h-6.77A33.13,33.13,0,0,0,629,309.1a50.17,50.17,0,0,0-8.37-12.23q-12.6-13.17-34.24-13.17A45.72,45.72,0,0,0,563,290Zm70.64,61.8H590V406.2a47.31,47.31,0,0,0,24.37-8.56,44.5,44.5,0,0,0,15.94-20.23,55.33,55.33,0,0,0,3.39-19.94Z" transform="translate(1.11)"/><g class="cls-5"><g class="cls-5"><path class="cls-6" d="M1305.92,185.72h59.36l105.78,266.35h-64.68l-17.89-46H1282.71l-17.88,46h-64.69Zm67.35,172.75-37.67-97.41-37.29,97.41Z" transform="translate(1.11)"/><path class="cls-6" d="M1563.52,185.72h113.77q22.83,0,41.28,6.28a86.41,86.41,0,0,1,31.4,18.26,81.63,81.63,0,0,1,20,28.92q7,16.94,7,38.24,0,29.68-13.32,50.61t-37.29,31.58l55.18,92.46h-70L1664,369.12h-40v82.95h-60.5ZM1669.3,318.13q22.44,0,34.43-10.46t12-29.87q0-19.41-12-29.87t-34.43-10.46h-46v80.66Z" transform="translate(1.11)"/></g><g class="cls-5"><path class="cls-6" d="M1888.47,185.72H1949V288.07h22.83a94.34,94.34,0,0,0,19.41-1.71,39.49,39.49,0,0,0,13.7-5.51,33.7,33.7,0,0,0,9.7-10.09A80.69,80.69,0,0,0,2022,255l25.11-69.25h65.45l-36.91,94.74a160.66,160.66,0,0,1-11.42,23.4,84.46,84.46,0,0,1-14.08,17.7l71.92,130.51h-70.39L1994.63,344a61.13,61.13,0,0,1-6.66.38h-39V452.07h-60.5Z" transform="translate(1.11)"/></g><g class="cls-5"><path class="cls-6" d="M2332.51,457.4q-30.81,0-56.31-10.28a133.79,133.79,0,0,1-44.14-28.53,126.76,126.76,0,0,1-28.92-43.76q-10.26-25.49-10.27-55.93T2203.14,263a126.75,126.75,0,0,1,72.3-72.29q25.48-10.28,55.93-10.28a156.31,156.31,0,0,1,46,6.66,140.58,140.58,0,0,1,39,18.65,125.18,125.18,0,0,1,29.86,29.1,120.92,120.92,0,0,1,18.65,38.05h-65.07a69.88,69.88,0,0,0-27.39-27.2q-17.5-9.71-40-9.7a83.13,83.13,0,0,0-32.15,6.08,72.36,72.36,0,0,0-25.11,17.13,76.82,76.82,0,0,0-16.17,26.25,94.59,94.59,0,0,0-5.71,33.49,93.4,93.4,0,0,0,5.71,33.1,78.25,78.25,0,0,0,16,26.25,72.33,72.33,0,0,0,25.11,17.32,84.3,84.3,0,0,0,33.11,6.27q29.29,0,48.7-14.84t25.11-39.19h-86.37V301H2471q2.28,34.25-6.66,63t-27.21,49.47a125.73,125.73,0,0,1-44.9,32.34Q2365.63,457.4,2332.51,457.4Z" transform="translate(1.11)"/></g><g class="cls-5"><path class="cls-6" d="M2640.34,185.72h59.36l105.78,266.35h-64.69l-17.88-46H2617.13l-17.88,46h-64.69Zm67.35,172.75L2670,261.06l-37.29,97.41Z" transform="translate(1.11)"/><path class="cls-6" d="M2897.94,185.72h51.37l94.74,138.12,94.37-138.12h51V452.07h-60.11V291.88l-64.69,94.36h-41.86l-64.68-94.74V452.07h-60.12Z" transform="translate(1.11)"/></g><g class="cls-5"><path class="cls-6" d="M3310.41,185.72h175v51H3370.53v55.17h104.64v50.61H3370.53V400.7h119.1v51.37H3310.41Z" transform="translate(1.11)"/></g><g class="cls-5"><path class="cls-6" d="M3688.25,457.4q-25.11,0-45.08-6.28T3609.11,433a77.85,77.85,0,0,1-21.5-28.53q-7.41-16.74-7.42-37.29h59.36q0,19.41,13.13,29.87t35.19,10.46q19,0,30.06-7.42a23.6,23.6,0,0,0,11-20.74q0-14.07-13.13-22.83t-41.66-14.83q-47.19-9.9-69.45-29.87t-22.26-52.7a76.91,76.91,0,0,1,6.85-32.92,66.92,66.92,0,0,1,19.79-24.73q12.93-10.08,31.39-15.6t41.29-5.52q23.58,0,42.8,6.28t32.72,17.69A76.57,76.57,0,0,1,3778.05,232q7.23,16.19,7.23,36.34h-58.21q0-18.27-11.8-28.35t-32.72-10.08q-19.41,0-30.25,7.42T3641.45,258q0,12.18,12.18,20.54t42.61,15.6q49.85,11.8,71.92,31.39t22.07,51.56q0,38.06-27.21,59.17T3688.25,457.4Z" transform="translate(1.11)"/></g></g></svg>