<?xml version="1.0" encoding="utf-8"?>
<!-- Generator: Adobe Illustrator 16.0.0, SVG Export Plug-In . SVG Version: 6.00 Build 0)  -->
<!DOCTYPE svg PUBLIC "-//W3C//DTD SVG 1.1//EN" "http://www.w3.org/Graphics/SVG/1.1/DTD/svg11.dtd">
<svg version="1.1" id="Livello_1" xmlns="http://www.w3.org/2000/svg" xmlns:xlink="http://www.w3.org/1999/xlink" x="0px" y="0px"
	 width="64px" height="64px" viewBox="0 0 64 64" enable-background="new 0 0 64 64" xml:space="preserve">
<g>
	<path fill="#EB4B3F" d="M62,32c0,16.565-13.435,30-30,30C15.433,62,2,48.565,2,32C2,15.433,15.433,2,32,2C48.565,2,62,15.433,62,32
		z"/>
	<path fill="#1C1C1C" d="M44.938,19.063v25.875H19.063V19.063H44.938 M46.375,14.75h-28.75c-1.58,0-2.875,1.295-2.875,2.874v28.751
		c0,1.58,1.295,2.875,2.875,2.875h28.75c1.58,0,2.875-1.295,2.875-2.875V17.624C49.25,16.045,47.955,14.75,46.375,14.75
		L46.375,14.75z"/>
</g>
</svg>
