<?xml version="1.0" encoding="utf-8"?>
<!-- Generator: Adobe Illustrator 16.0.0, SVG Export Plug-In . SVG Version: 6.00 Build 0)  -->
<!DOCTYPE svg PUBLIC "-//W3C//DTD SVG 1.1//EN" "http://www.w3.org/Graphics/SVG/1.1/DTD/svg11.dtd">
<svg version="1.1" id="Livello_1" xmlns="http://www.w3.org/2000/svg" xmlns:xlink="http://www.w3.org/1999/xlink" x="0px" y="0px"
	 width="64px" height="64px" viewBox="0 0 64 64" enable-background="new 0 0 64 64" xml:space="preserve">
<g>
	<path fill="#F9C438" d="M62,32c0,16.565-13.433,30-30,30C15.432,62,2,48.565,2,32C2,15.432,15.432,2,32,2C48.567,2,62,15.432,62,32
		z"/>
	 
	<path fill="#1C1C1C" d="M32,20.567l13.158,22.861H18.842L32,20.567 M32,13.073c-0.543,0-1.085,0.359-1.497,1.073L12.556,45.327
		c-0.823,1.43-0.146,2.601,1.504,2.601h35.88c1.65,0,2.326-1.171,1.504-2.601L33.496,14.146C33.084,13.432,32.543,13.073,32,13.073
		L32,13.073z"/>
</g>
</svg>
